<?xml version="1.0" encoding="UTF-8"?>
<svg version="1.1" xmlns="http://www.w3.org/2000/svg" width="128" height="128">
<path d="M0 0 C1.05316406 -0.00322266 2.10632813 -0.00644531 3.19140625 -0.00976562 C14.38073349 0.06823349 14.38073349 0.06823349 17.625 3.3125 C17.66580783 5.31208364 17.66754356 7.31295254 17.625 9.3125 C13.39024174 10.15945165 9.91389363 10.3013376 5.625 9.75 C-9.86782413 8.15827149 -24.73392598 12.70826307 -36.94140625 22.22265625 C-46.071141 30.06279765 -53.28654311 41.13051359 -54.59399414 53.36108398 C-54.71458635 55.57882246 -54.75428117 57.77902216 -54.75 60 C-54.74983887 60.78584473 -54.74967773 61.57168945 -54.74951172 62.38134766 C-54.60560791 69.79012178 -53.10487419 76.77526082 -49.2421875 83.1953125 C-46.94565871 88.80215307 -48.69709331 94.03823673 -50.75 99.4375 C-51.19085938 100.61570312 -51.63171875 101.79390625 -52.0859375 103.0078125 C-53.1680854 105.78204621 -54.26009504 108.55128677 -55.375 111.3125 C-52.85217364 110.71586519 -50.3319878 110.11044859 -47.8125 109.5 C-47.10802734 109.33435547 -46.40355469 109.16871094 -45.67773438 108.99804688 C-42.16469304 108.14002295 -38.98304525 107.19007824 -35.72265625 105.61328125 C-29.71529921 103.279034 -25.01307592 105.70080546 -19.1875 107.8125 C-4.48573033 112.85367078 10.08754255 111.96613691 24.4921875 105.9140625 C38.57801679 98.71307745 47.5486896 88.17105662 52.625 73.3125 C53.52929449 70.22136027 53.79731875 67.36061038 53.90625 64.14453125 C53.94363281 63.16935547 53.98101562 62.19417969 54.01953125 61.18945312 C54.0902466 59.13477945 54.16055454 57.08009172 54.23046875 55.02539062 C54.26785156 54.05408203 54.30523437 53.08277344 54.34375 52.08203125 C54.37404297 51.19104736 54.40433594 50.30006348 54.43554688 49.38208008 C54.625 47.3125 54.625 47.3125 55.625 46.3125 C58.5625 46.0625 58.5625 46.0625 61.625 46.3125 C66.44707632 53.54561448 64.30021087 66.84432604 63.04296875 75.1640625 C58.84634731 90.6091624 48.06407636 103.5064973 34.55859375 111.7109375 C23.28286512 117.86679467 12.76988251 120.70461241 0 120.6875 C-1.58917236 120.68834595 -1.58917236 120.68834595 -3.21044922 120.68920898 C-10.50694745 120.58720294 -16.66859607 119.73500216 -23.5703125 117.28515625 C-29.89065602 115.09328224 -33.85347253 115.46785174 -40.0625 117.75 C-46.47391635 119.91002352 -52.56599351 121.7510225 -59.375 120.3125 C-62.5625 118.4375 -62.5625 118.4375 -64.375 115.3125 C-65.53666509 109.15567501 -64.38245705 104.66152867 -61.41796875 99.2890625 C-58.80480422 94.33677317 -57.74736112 90.48117093 -59.3359375 84.9921875 C-60.21540383 82.71980917 -61.13929457 80.46396696 -62.11328125 78.23046875 C-67.02582892 66.86925169 -65.89164135 50.48034739 -61.62890625 39.05859375 C-54.36922429 23.1596641 -42.39719887 11.58059917 -26.46875 4.41796875 C-17.5026808 1.21418392 -9.5319357 -0.1491229 0 0 Z " fill="#000000" transform="translate(64.375,3.6875)"/>
<path d="M0 0 C2.44140625 0.47265625 2.44140625 0.47265625 5.37890625 2.97265625 C8.27044762 7.28946091 10.44140625 12.24456557 10.44140625 17.47265625 C11.08078125 17.55515625 11.72015625 17.63765625 12.37890625 17.72265625 C17.69585625 19.02476645 24.02912327 20.9511172 27.44140625 25.47265625 C28.18766749 28.88578905 28.10447856 32.04769599 27.44140625 35.47265625 C23.53658273 40.06082389 19.12759776 41.70154742 13.44140625 43.47265625 C12.45140625 43.47265625 11.46140625 43.47265625 10.44140625 43.47265625 C10.35890625 44.11203125 10.27640625 44.75140625 10.19140625 45.41015625 C8.88929605 50.72710625 6.9629453 57.06037327 2.44140625 60.47265625 C-0.97172655 61.21891749 -4.13363349 61.13572856 -7.55859375 60.47265625 C-12.14676139 56.56783273 -13.78748492 52.15884776 -15.55859375 46.47265625 C-15.55859375 45.48265625 -15.55859375 44.49265625 -15.55859375 43.47265625 C-16.19796875 43.39015625 -16.83734375 43.30765625 -17.49609375 43.22265625 C-22.81304375 41.92054605 -29.14631077 39.9941953 -32.55859375 35.47265625 C-33.30485499 32.05952345 -33.22166606 28.89761651 -32.55859375 25.47265625 C-28.65377023 20.88448861 -24.24478526 19.24376508 -18.55859375 17.47265625 C-17.56859375 17.47265625 -16.57859375 17.47265625 -15.55859375 17.47265625 C-15.47609375 16.83328125 -15.39359375 16.19390625 -15.30859375 15.53515625 C-13.0189512 6.18578252 -10.35288886 -0.34660327 0 0 Z M-3.55859375 9.47265625 C-3.96464844 10.88417969 -3.96464844 10.88417969 -4.37890625 12.32421875 C-8.07324517 23.00904331 -8.07324517 23.00904331 -13.07421875 25.73828125 C-16.47416434 27.27472004 -19.97320691 28.4412436 -23.55859375 29.47265625 C-23.55859375 30.13265625 -23.55859375 30.79265625 -23.55859375 31.47265625 C-22.14707031 31.87871094 -22.14707031 31.87871094 -20.70703125 32.29296875 C-10.02220669 35.98730767 -10.02220669 35.98730767 -7.29296875 40.98828125 C-5.75652996 44.38822684 -4.5900064 47.88726941 -3.55859375 51.47265625 C-2.89859375 51.47265625 -2.23859375 51.47265625 -1.55859375 51.47265625 C-1.15253906 50.06113281 -1.15253906 50.06113281 -0.73828125 48.62109375 C2.95605767 37.93626919 2.95605767 37.93626919 7.95703125 35.20703125 C11.35697684 33.67059246 14.85601941 32.5040689 18.44140625 31.47265625 C18.44140625 30.81265625 18.44140625 30.15265625 18.44140625 29.47265625 C17.02988281 29.06660156 17.02988281 29.06660156 15.58984375 28.65234375 C4.90501919 24.95800483 4.90501919 24.95800483 2.17578125 19.95703125 C0.63934246 16.55708566 -0.5271811 13.05804309 -1.55859375 9.47265625 C-2.21859375 9.47265625 -2.87859375 9.47265625 -3.55859375 9.47265625 Z " fill="#000000" transform="translate(100.55859375,3.52734375)"/>
<path d="M0 0 C2.5 1.5 2.5 1.5 4 4 C4.791013 8.02098277 4.62153384 10.96411027 2.5 14.5 C-1.03588973 16.62153384 -3.97901723 16.791013 -8 16 C-10.5 14.5 -10.5 14.5 -12 12 C-12.791013 7.97901723 -12.62153384 5.03588973 -10.5 1.5 C-6.96411027 -0.62153384 -4.02098277 -0.791013 0 0 Z " fill="#000000" transform="translate(68,56)"/>
<path d="M0 0 C2.5 1.5 2.5 1.5 4 4 C4.791013 8.02098277 4.62153384 10.96411027 2.5 14.5 C-1.03588973 16.62153384 -3.97901723 16.791013 -8 16 C-10.5 14.5 -10.5 14.5 -12 12 C-12.791013 7.97901723 -12.62153384 5.03588973 -10.5 1.5 C-6.96411027 -0.62153384 -4.02098277 -0.791013 0 0 Z " fill="#000000" transform="translate(38,56)"/>
</svg>
